<?xml version="1.0" standalone="yes"?>
<svg xmlns="http://www.w3.org/2000/svg" width="1536" height="650">
<path style="fill:#ffffff; stroke:none;" d="M0 0L0 650L1536 650L1536 0L0 0z"/>
<path style="fill:#c3adcb; stroke:none;" d="M478 10L478 639L1057 639L1057 10L478 10z"/>
<path style="fill:#d5c8db; stroke:none;" d="M745 131L745 132L748 132L745 131z"/>
<path style="fill:#e3dae7; stroke:none;" d="M748 131L748 132L751 132L748 131z"/>
<path style="fill:#eee9f0; stroke:none;" d="M751 131L751 132L755 132L751 131z"/>
<path style="fill:#ffffff; stroke:none;" d="M667 374L615 374C615 422.501 629.912 470.127 671 499.572C684.344 509.134 699.434 515.688 715 520.656C782.288 542.133 887.855 529.406 914.655 453C919.406 439.457 922 425.353 922 411C922 395.35 921.637 379.941 916.302 365C895.893 307.852 826.526 301.324 775 295.155C743.206 291.349 685.877 288.768 679.145 248C673.832 215.823 699.203 193.553 728 185.428C776.399 171.773 853 190.645 853 251L905 251C905 233.861 903.974 216.986 897.127 201C870.901 139.766 791.205 124.132 732 133.92C689.411 140.961 644.869 164.286 631.029 208C627.274 219.86 626.999 231.699 627 244C627.001 254.336 628.245 265.099 631.347 275C651.853 340.455 728.991 343.549 786 349.95C818.539 353.603 868.139 361.388 869.961 403C872.16 453.235 815.268 476.51 773 476.996C731.891 477.469 687.748 455.918 672.461 416C667.251 402.396 667 388.334 667 374z"/>
<path style="fill:#eee9f0; stroke:none;" d="M775 131L775 132L779 132L775 131z"/>
<path style="fill:#e3dae7; stroke:none;" d="M779 131L779 132L783 132L779 131z"/>
<path style="fill:#d5c8db; stroke:none;" d="M783.667 131.333L784.333 131.667L783.667 131.333M737.667 132.333L738.333 132.667L737.667 132.333z"/>
<path style="fill:#e3dae7; stroke:none;" d="M739.667 132.333L740.333 132.667L739.667 132.333z"/>
<path style="fill:#eee9f0; stroke:none;" d="M741.667 132.333L742.333 132.667L741.667 132.333M788.667 132.333L789.333 132.667L788.667 132.333z"/>
<path style="fill:#e3dae7; stroke:none;" d="M790.667 132.333L791.333 132.667L790.667 132.333z"/>
<path style="fill:#d5c8db; stroke:none;" d="M792 132L793 133L792 132M731 133L732 134L731 133z"/>
<path style="fill:#e3dae7; stroke:none;" d="M732.667 133.333L733.333 133.667L732.667 133.333z"/>
<path style="fill:#eee9f0; stroke:none;" d="M734 133L735 134L734 133M795.667 133.333L796.333 133.667L795.667 133.333z"/>
<path style="fill:#e3dae7; stroke:none;" d="M797 133L798 134L797 133z"/>
<path style="fill:#d5c8db; stroke:none;" d="M798.667 133.333L799.333 133.667L798.667 133.333M725.667 134.333L726.333 134.667L725.667 134.333z"/>
<path style="fill:#e3dae7; stroke:none;" d="M727 134L728 135L727 134z"/>
<path style="fill:#eee9f0; stroke:none;" d="M728 134L729 135L728 134M801 134L802 135L801 134z"/>
<path style="fill:#e3dae7; stroke:none;" d="M802.667 134.333L803.333 134.667L802.667 134.333z"/>
<path style="fill:#d5c8db; stroke:none;" d="M804 134L805 135L804 134M721 135L722 136L721 135z"/>
<path style="fill:#e3dae7; stroke:none;" d="M722 135L723 136L722 135z"/>
<path style="fill:#eee9f0; stroke:none;" d="M723 135L724 136L723 135M806 135L807 136L806 135z"/>
<path style="fill:#e3dae7; stroke:none;" d="M807 135L808 136L807 135z"/>
<path style="fill:#d5c8db; stroke:none;" d="M808 135L809 136L808 135M717 136L718 137L717 136z"/>
<path style="fill:#e3dae7; stroke:none;" d="M718 136L719 137L718 136z"/>
<path style="fill:#eee9f0; stroke:none;" d="M719 136L720 137L719 136M811 136L812 137L811 136z"/>
<path style="fill:#e3dae7; stroke:none;" d="M812 136L813 137L812 136z"/>
<path style="fill:#d5c8db; stroke:none;" d="M813 136L814 137L813 136M713 137L714 138L713 137z"/>
<path style="fill:#e3dae7; stroke:none;" d="M714 137L715 138L714 137z"/>
<path style="fill:#eee9f0; stroke:none;" d="M715 137L716 138L715 137M815 137L816 138L815 137z"/>
<path style="fill:#e3dae7; stroke:none;" d="M816 137L817 138L816 137z"/>
<path style="fill:#d5c8db; stroke:none;" d="M709 138L710 139L709 138z"/>
<path style="fill:#e3dae7; stroke:none;" d="M710 138L711 139L710 138z"/>
<path style="fill:#eee9f0; stroke:none;" d="M711 138L712 139L711 138M818 138L819 139L818 138z"/>
<path style="fill:#e3dae7; stroke:none;" d="M819 138L820 139L819 138z"/>
<path style="fill:#d5c8db; stroke:none;" d="M820 138L821 139L820 138M706 139L707 140L706 139z"/>
<path style="fill:#e3dae7; stroke:none;" d="M707 139L708 140L707 139z"/>
<path style="fill:#eee9f0; stroke:none;" d="M708 139L709 140L708 139M822 139L823 140L822 139z"/>
<path style="fill:#d5c8db; stroke:none;" d="M823 139L824 140L823 139M703 140L704 141L703 140z"/>
<path style="fill:#e3dae7; stroke:none;" d="M704 140L705 141L704 140z"/>
<path style="fill:#eee9f0; stroke:none;" d="M825 140L826 141L825 140z"/>
<path style="fill:#d5c8db; stroke:none;" d="M826 140L827 141L826 140M700 141L701 142L700 141z"/>
<path style="fill:#e3dae7; stroke:none;" d="M701 141L702 142L701 141z"/>
<path style="fill:#eee9f0; stroke:none;" d="M828 141L829 142L828 141z"/>
<path style="fill:#d5c8db; stroke:none;" d="M829 141L830 142L829 141z"/>
<path style="fill:#e3dae7; stroke:none;" d="M698 142L699 143L698 142z"/>
<path style="fill:#eee9f0; stroke:none;" d="M699 142L700 143L699 142z"/>
<path style="fill:#e3dae7; stroke:none;" d="M831 142L832 143L831 142z"/>
<path style="fill:#d5c8db; stroke:none;" d="M832 142L833 143L832 142M695 143L696 144L695 143z"/>
<path style="fill:#eee9f0; stroke:none;" d="M696 143L697 144L696 143M833 143L834 144L833 143z"/>
<path style="fill:#d5c8db; stroke:none;" d="M834 143L835 144L834 143z"/>
<path style="fill:#e3dae7; stroke:none;" d="M693 144L694 145L693 144z"/>
<path style="fill:#eee9f0; stroke:none;" d="M694 144L695 145L694 144z"/>
<path style="fill:#e3dae7; stroke:none;" d="M836 144L837 145L836 144M691 145L692 146L691 145z"/>
<path style="fill:#eee9f0; stroke:none;" d="M838 145L839 146L838 145z"/>
<path style="fill:#d5c8db; stroke:none;" d="M839 145L840 146L839 145M688 146L689 147L688 146z"/>
<path style="fill:#e3dae7; stroke:none;" d="M689 146L690 147L689 146z"/>
<path style="fill:#eee9f0; stroke:none;" d="M840 146L841 147L840 146z"/>
<path style="fill:#d5c8db; stroke:none;" d="M841 146L842 147L841 146M686 147L687 148L686 147z"/>
<path style="fill:#eee9f0; stroke:none;" d="M687 147L688 148L687 147M842 147L843 148L842 147z"/>
<path style="fill:#d5c8db; stroke:none;" d="M843 147L844 148L843 147M684 148L685 149L684 148z"/>
<path style="fill:#eee9f0; stroke:none;" d="M685 148L686 149L685 148M844 148L845 149L844 148z"/>
<path style="fill:#d5c8db; stroke:none;" d="M845 148L846 149L845 148M682 149L683 150L682 149z"/>
<path style="fill:#eee9f0; stroke:none;" d="M683 149L684 150L683 149M846 149L847 150L846 149z"/>
<path style="fill:#d5c8db; stroke:none;" d="M847 149L848 150L847 149z"/>
<path style="fill:#e3dae7; stroke:none;" d="M681 150L682 151L681 150z"/>
<path style="fill:#eee9f0; stroke:none;" d="M848 150L849 151L848 150z"/>
<path style="fill:#d5c8db; stroke:none;" d="M849 150L850 151L849 150z"/>
<path style="fill:#e3dae7; stroke:none;" d="M679 151L680 152L679 151z"/>
<path style="fill:#eee9f0; stroke:none;" d="M850 151L851 152L850 151z"/>
<path style="fill:#d5c8db; stroke:none;" d="M677 152L678 153L677 152z"/>
<path style="fill:#e3dae7; stroke:none;" d="M852 152L853 153L852 152z"/>
<path style="fill:#d5c8db; stroke:none;" d="M675 153L676 154L675 153z"/>
<path style="fill:#eee9f0; stroke:none;" d="M676 153L677 154L676 153M853 153L854 154L853 153z"/>
<path style="fill:#d5c8db; stroke:none;" d="M854 153L855 154L854 153z"/>
<path style="fill:#e3dae7; stroke:none;" d="M674 154L675 155L674 154z"/>
<path style="fill:#eee9f0; stroke:none;" d="M855 154L856 155L855 154z"/>
<path style="fill:#d5c8db; stroke:none;" d="M672 155L673 156L672 155z"/>
<path style="fill:#eee9f0; stroke:none;" d="M673 155L674 156L673 155z"/>
<path style="fill:#e3dae7; stroke:none;" d="M857 155L858 156L857 155M671 156L672 157L671 156z"/>
<path style="fill:#eee9f0; stroke:none;" d="M858 156L859 157L858 156z"/>
<path style="fill:#d5c8db; stroke:none;" d="M859 156L860 157L859 156M669 157L670 158L669 157z"/>
<path style="fill:#e3dae7; stroke:none;" d="M860 157L861 158L860 157M668 158L669 159L668 158z"/>
<path style="fill:#eee9f0; stroke:none;" d="M861 158L862 159L861 158z"/>
<path style="fill:#d5c8db; stroke:none;" d="M666 159L667 160L666 159z"/>
<path style="fill:#eee9f0; stroke:none;" d="M667 159L668 160L667 159z"/>
<path style="fill:#d5c8db; stroke:none;" d="M863 159L864 160L863 159M665 160L666 161L665 160z"/>
<path style="fill:#e3dae7; stroke:none;" d="M864 160L865 161L864 160M664 161L665 162L664 161z"/>
<path style="fill:#eee9f0; stroke:none;" d="M865 161L866 162L865 161M663 162L664 163L663 162z"/>
<path style="fill:#d5c8db; stroke:none;" d="M867 162L868 163L867 162M661 163L662 164L661 163z"/>
<path style="fill:#e3dae7; stroke:none;" d="M868 163L869 164L868 163z"/>
<path style="fill:#d5c8db; stroke:none;" d="M660 164L661 165L660 164z"/>
<path style="fill:#e3dae7; stroke:none;" d="M869 164L870 165L869 164M659 165L660 166L659 165z"/>
<path style="fill:#eee9f0; stroke:none;" d="M870 165L871 166L870 165z"/>
<path style="fill:#e3dae7; stroke:none;" d="M658 166L659 167L658 166z"/>
<path style="fill:#eee9f0; stroke:none;" d="M871 166L872 167L871 166z"/>
<path style="fill:#e3dae7; stroke:none;" d="M657 167L658 168L657 167z"/>
<path style="fill:#eee9f0; stroke:none;" d="M872 167L873 168L872 167z"/>
<path style="fill:#d5c8db; stroke:none;" d="M873 167L874 168L873 167z"/>
<path style="fill:#eee9f0; stroke:none;" d="M656 168L657 169L656 168z"/>
<path style="fill:#d5c8db; stroke:none;" d="M874 168L875 169L874 168z"/>
<path style="fill:#eee9f0; stroke:none;" d="M655 169L656 170L655 169z"/>
<path style="fill:#d5c8db; stroke:none;" d="M875 169L876 170L875 169z"/>
<path style="fill:#eee9f0; stroke:none;" d="M654 170L655 171L654 170z"/>
<path style="fill:#d5c8db; stroke:none;" d="M876 170L877 171L876 170z"/>
<path style="fill:#eee9f0; stroke:none;" d="M653 171L654 172L653 171z"/>
<path style="fill:#d5c8db; stroke:none;" d="M877 171L878 172L877 171z"/>
<path style="fill:#eee9f0; stroke:none;" d="M652 172L653 173L652 172z"/>
<path style="fill:#d5c8db; stroke:none;" d="M878 172L879 173L878 172z"/>
<path style="fill:#e3dae7; stroke:none;" d="M651 173L652 174L651 173z"/>
<path style="fill:#d5c8db; stroke:none;" d="M879 173L880 174L879 173z"/>
<path style="fill:#e3dae7; stroke:none;" d="M650 174L651 175L650 174z"/>
<path style="fill:#eee9f0; stroke:none;" d="M879 174L880 175L879 174z"/>
<path style="fill:#e3dae7; stroke:none;" d="M649 175L650 176L649 175z"/>
<path style="fill:#eee9f0; stroke:none;" d="M880 175L881 176L880 175z"/>
<path style="fill:#d5c8db; stroke:none;" d="M648 176L649 177L648 176z"/>
<path style="fill:#eee9f0; stroke:none;" d="M881 176L882 177L881 176z"/>
<path style="fill:#d5c8db; stroke:none;" d="M647 177L648 178L647 177z"/>
<path style="fill:#e3dae7; stroke:none;" d="M882 177L883 178L882 177z"/>
<path style="fill:#d5c8db; stroke:none;" d="M883 178L884 179L883 178z"/>
<path style="fill:#eee9f0; stroke:none;" d="M646 179L647 180L646 179z"/>
<path style="fill:#d5c8db; stroke:none;" d="M884 179L885 180L884 179z"/>
<path style="fill:#e3dae7; stroke:none;" d="M645 180L646 181L645 180z"/>
<path style="fill:#d5c8db; stroke:none;" d="M644 181L645 182L644 181z"/>
<path style="fill:#eee9f0; stroke:none;" d="M752 181L752 182L769 182L752 181M885 181L886 182L885 181M742.667 182.333L743.333 182.667L742.667 182.333z"/>
<path style="fill:#e3dae7; stroke:none;" d="M744.667 182.333L745.333 182.667L744.667 182.333z"/>
<path style="fill:#d5c8db; stroke:none;" d="M746 182L746 183L749 183L746 182M772 182L772 183L775 183L772 182z"/>
<path style="fill:#e3dae7; stroke:none;" d="M775.667 182.333L776.333 182.667L775.667 182.333z"/>
<path style="fill:#eee9f0; stroke:none;" d="M777.667 182.333L778.333 182.667L777.667 182.333z"/>
<path style="fill:#e3dae7; stroke:none;" d="M886 182L887 183L886 182z"/>
<path style="fill:#eee9f0; stroke:none;" d="M643 183L644 184L643 183M736 183L737 184L736 183z"/>
<path style="fill:#e3dae7; stroke:none;" d="M737.667 183.333L738.333 183.667L737.667 183.333z"/>
<path style="fill:#d5c8db; stroke:none;" d="M739 183L740 184L739 183M780.667 183.333L781.333 183.667L780.667 183.333z"/>
<path style="fill:#e3dae7; stroke:none;" d="M782.667 183.333L783.333 183.667L782.667 183.333z"/>
<path style="fill:#eee9f0; stroke:none;" d="M784 183L785 184L784 183z"/>
<path style="fill:#d5c8db; stroke:none;" d="M887 183L888 184L887 183z"/>
<path style="fill:#e3dae7; stroke:none;" d="M642 184L643 185L642 184z"/>
<path style="fill:#eee9f0; stroke:none;" d="M731 184L732 185L731 184z"/>
<path style="fill:#e3dae7; stroke:none;" d="M732 184L733 185L732 184z"/>
<path style="fill:#d5c8db; stroke:none;" d="M733.667 184.333L734.333 184.667L733.667 184.333M786.667 184.333L787.333 184.667L786.667 184.333z"/>
<path style="fill:#e3dae7; stroke:none;" d="M788 184L789 185L788 184z"/>
<path style="fill:#eee9f0; stroke:none;" d="M789 184L790 185L789 184z"/>
<path style="fill:#d5c8db; stroke:none;" d="M641 185L642 186L641 185z"/>
<path style="fill:#eee9f0; stroke:none;" d="M727 185L728 186L727 185z"/>
<path style="fill:#e3dae7; stroke:none;" d="M728 185L729 186L728 185z"/>
<path style="fill:#d5c8db; stroke:none;" d="M729 185L730 186L729 185M791 185L792 186L791 185z"/>
<path style="fill:#e3dae7; stroke:none;" d="M792 185L793 186L792 185z"/>
<path style="fill:#eee9f0; stroke:none;" d="M793 185L794 186L793 185M888 185L889 186L888 185M641 186L642 187L641 186M724 186L725 187L724 186z"/>
<path style="fill:#d5c8db; stroke:none;" d="M725 186L726 187L725 186M795 186L796 187L795 186z"/>
<path style="fill:#e3dae7; stroke:none;" d="M796 186L797 187L796 186z"/>
<path style="fill:#eee9f0; stroke:none;" d="M797 186L798 187L797 186z"/>
<path style="fill:#d5c8db; stroke:none;" d="M889 186L890 187L889 186z"/>
<path style="fill:#e3dae7; stroke:none;" d="M640 187L641 188L640 187M721 187L722 188L721 187z"/>
<path style="fill:#d5c8db; stroke:none;" d="M722 187L723 188L722 187z"/>
<path style="fill:#e3dae7; stroke:none;" d="M799 187L800 188L799 187z"/>
<path style="fill:#eee9f0; stroke:none;" d="M800 187L801 188L800 187z"/>
<path style="fill:#d5c8db; stroke:none;" d="M639 188L640 189L639 188z"/>
<path style="fill:#eee9f0; stroke:none;" d="M718 188L719 189L718 188z"/>
<path style="fill:#d5c8db; stroke:none;" d="M719 188L720 189L719 188z"/>
<path style="fill:#e3dae7; stroke:none;" d="M802 188L803 189L802 188z"/>
<path style="fill:#eee9f0; stroke:none;" d="M803 188L804 189L803 188M890 188L891 189L890 188M639 189L640 190L639 189M715 189L716 190L715 189z"/>
<path style="fill:#e3dae7; stroke:none;" d="M716 189L717 190L716 189M805 189L806 190L805 189z"/>
<path style="fill:#eee9f0; stroke:none;" d="M806 189L807 190L806 189z"/>
<path style="fill:#d5c8db; stroke:none;" d="M891 189L892 190L891 189M638 190L639 191L638 190z"/>
<path style="fill:#eee9f0; stroke:none;" d="M713 190L714 191L713 190z"/>
<path style="fill:#d5c8db; stroke:none;" d="M714 190L715 191L714 190M807 190L808 191L807 190z"/>
<path style="fill:#eee9f0; stroke:none;" d="M808 190L809 191L808 190M891 190L892 191L891 190M711 191L712 192L711 191z"/>
<path style="fill:#d5c8db; stroke:none;" d="M712 191L713 192L712 191z"/>
<path style="fill:#e3dae7; stroke:none;" d="M810 191L811 192L810 191M892 191L893 192L892 191M637 192L638 193L637 192z"/>
<path style="fill:#eee9f0; stroke:none;" d="M709 192L710 193L709 192z"/>
<path style="fill:#d5c8db; stroke:none;" d="M710 192L711 193L710 192z"/>
<path style="fill:#e3dae7; stroke:none;" d="M812 192L813 193L812 192z"/>
<path style="fill:#eee9f0; stroke:none;" d="M813 192L814 193L813 192M707 193L708 194L707 193z"/>
<path style="fill:#d5c8db; stroke:none;" d="M708 193L709 194L708 193M814 193L815 194L814 193z"/>
<path style="fill:#eee9f0; stroke:none;" d="M815 193L816 194L815 193M893 193L894 194L893 193z"/>
<path style="fill:#e3dae7; stroke:none;" d="M636 194L637 195L636 194z"/>
<path style="fill:#d5c8db; stroke:none;" d="M706 194L707 195L706 194z"/>
<path style="fill:#e3dae7; stroke:none;" d="M816 194L817 195L816 194z"/>
<path style="fill:#d5c8db; stroke:none;" d="M894 194L895 195L894 194z"/>
<path style="fill:#e3dae7; stroke:none;" d="M704 195L705 196L704 195M818 195L819 196L818 195z"/>
<path style="fill:#eee9f0; stroke:none;" d="M894 195L895 196L894 195z"/>
<path style="fill:#e3dae7; stroke:none;" d="M635 196L636 197L635 196z"/>
<path style="fill:#eee9f0; stroke:none;" d="M702 196L703 197L702 196z"/>
<path style="fill:#d5c8db; stroke:none;" d="M703 196L704 197L703 196z"/>
<path style="fill:#e3dae7; stroke:none;" d="M820 196L821 197L820 196z"/>
<path style="fill:#d5c8db; stroke:none;" d="M895 196L896 197L895 196z"/>
<path style="fill:#e3dae7; stroke:none;" d="M701 197L702 198L701 197z"/>
<path style="fill:#d5c8db; stroke:none;" d="M821 197L822 198L821 197z"/>
<path style="fill:#eee9f0; stroke:none;" d="M822 197L823 198L822 197M895 197L896 198L895 197z"/>
<path style="fill:#e3dae7; stroke:none;" d="M634 198L635 199L634 198z"/>
<path style="fill:#d5c8db; stroke:none;" d="M700 198L701 199L700 198z"/>
<path style="fill:#e3dae7; stroke:none;" d="M823 198L824 199L823 198z"/>
<path style="fill:#d5c8db; stroke:none;" d="M896 198L897 199L896 198z"/>
<path style="fill:#eee9f0; stroke:none;" d="M698 199L699 200L698 199z"/>
<path style="fill:#d5c8db; stroke:none;" d="M824 199L825 200L824 199z"/>
<path style="fill:#eee9f0; stroke:none;" d="M825 199L826 200L825 199M896 199L897 200L896 199z"/>
<path style="fill:#e3dae7; stroke:none;" d="M633 200L634 201L633 200M697 200L698 201L697 200M826 200L827 201L826 200z"/>
<path style="fill:#eee9f0; stroke:none;" d="M633 201L634 202L633 201z"/>
<path style="fill:#e3dae7; stroke:none;" d="M696 201L697 202L696 201z"/>
<path style="fill:#d5c8db; stroke:none;" d="M827 201L828 202L827 201z"/>
<path style="fill:#eee9f0; stroke:none;" d="M828 201L829 202L828 201z"/>
<path style="fill:#e3dae7; stroke:none;" d="M897 201L898 202L897 201z"/>
<path style="fill:#d5c8db; stroke:none;" d="M632 202L633 203L632 202M695 202L696 203L695 202z"/>
<path style="fill:#eee9f0; stroke:none;" d="M829 202L830 203L829 202z"/>
<path style="fill:#e3dae7; stroke:none;" d="M632 203L633 204L632 203z"/>
<path style="fill:#d5c8db; stroke:none;" d="M694 203L695 204L694 203z"/>
<path style="fill:#e3dae7; stroke:none;" d="M830 203L831 204L830 203M898 203L899 204L898 203z"/>
<path style="fill:#d5c8db; stroke:none;" d="M693 204L694 205L693 204M831 204L832 205L831 204z"/>
<path style="fill:#eee9f0; stroke:none;" d="M898 204L899 205L898 204z"/>
<path style="fill:#d5c8db; stroke:none;" d="M631 205L632 206L631 205M692 205L693 206L692 205M832 205L833 206L832 205z"/>
<path style="fill:#eee9f0; stroke:none;" d="M833 205L834 206L833 205z"/>
<path style="fill:#d5c8db; stroke:none;" d="M899 205L900 206L899 205z"/>
<path style="fill:#eee9f0; stroke:none;" d="M631 206L632 207L631 206z"/>
<path style="fill:#d5c8db; stroke:none;" d="M691 206L692 207L691 206z"/>
<path style="fill:#eee9f0; stroke:none;" d="M834 206L835 207L834 206z"/>
<path style="fill:#e3dae7; stroke:none;" d="M899 206L900 207L899 206z"/>
<path style="fill:#d5c8db; stroke:none;" d="M690 207L691 208L690 207z"/>
<path style="fill:#eee9f0; stroke:none;" d="M835 207L836 208L835 207M899 207L900 208L899 207z"/>
<path style="fill:#d5c8db; stroke:none;" d="M630 208L631 209L630 208z"/>
<path style="fill:#e3dae7; stroke:none;" d="M689 208L690 209L689 208M836 208L837 209L836 208z"/>
<path style="fill:#d5c8db; stroke:none;" d="M900 208L901 209L900 208z"/>
<path style="fill:#eee9f0; stroke:none;" d="M630 209L631 210L630 209M688 209L689 210L688 209z"/>
<path style="fill:#e3dae7; stroke:none;" d="M837 209L838 210L837 209M900 209L901 210L900 209z"/>
<path style="fill:#eee9f0; stroke:none;" d="M687 210L688 211L687 210z"/>
<path style="fill:#e3dae7; stroke:none;" d="M838 210L839 211L838 210z"/>
<path style="fill:#eee9f0; stroke:none;" d="M900 210L901 211L900 210z"/>
<path style="fill:#d5c8db; stroke:none;" d="M629 211L630 212L629 211M687 211L688 212L687 211z"/>
<path style="fill:#eee9f0; stroke:none;" d="M839 211L840 212L839 211z"/>
<path style="fill:#d5c8db; stroke:none;" d="M901 211L902 212L901 211z"/>
<path style="fill:#e3dae7; stroke:none;" d="M629 212L630 213L629 212M686 212L687 213L686 212z"/>
<path style="fill:#eee9f0; stroke:none;" d="M840 212L841 213L840 212z"/>
<path style="fill:#e3dae7; stroke:none;" d="M901 212L902 213L901 212z"/>
<path style="fill:#eee9f0; stroke:none;" d="M629 213L630 214L629 213M685 213L686 214L685 213M841 213L842 214L841 213M901 213L902 214L901 213z"/>
<path style="fill:#d5c8db; stroke:none;" d="M841 214L842 215L841 214M628 215L629 216L628 215z"/>
<path style="fill:#e3dae7; stroke:none;" d="M684 215L685 216L684 215z"/>
<path style="fill:#d5c8db; stroke:none;" d="M842 215L843 216L842 215M902 215L903 216L902 215z"/>
<path style="fill:#e3dae7; stroke:none;" d="M628 216L629 217L628 216z"/>
<path style="fill:#eee9f0; stroke:none;" d="M683 216L684 217L683 216z"/>
<path style="fill:#e3dae7; stroke:none;" d="M843 216L844 217L843 216M902 216L903 217L902 216z"/>
<path style="fill:#eee9f0; stroke:none;" d="M628.333 217.667L628.667 218.333L628.333 217.667z"/>
<path style="fill:#d5c8db; stroke:none;" d="M683 217L684 218L683 217z"/>
<path style="fill:#eee9f0; stroke:none;" d="M844 217L845 218L844 217M902 217L903 218L902 217M682 218L683 219L682 218z"/>
<path style="fill:#e3dae7; stroke:none;" d="M682 219L683 220L682 219M845 219L846 220L845 219z"/>
<path style="fill:#d5c8db; stroke:none;" d="M627.333 220.667L627.667 221.333L627.333 220.667z"/>
<path style="fill:#eee9f0; stroke:none;" d="M846 220L847 221L846 220z"/>
<path style="fill:#d5c8db; stroke:none;" d="M903 220L904 221L903 220z"/>
<path style="fill:#e3dae7; stroke:none;" d="M681 221L682 222L681 221z"/>
<path style="fill:#d5c8db; stroke:none;" d="M846 221L847 222L846 221z"/>
<path style="fill:#e3dae7; stroke:none;" d="M903 221L904 222L903 221M627 222L628 223L627 222z"/>
<path style="fill:#d5c8db; stroke:none;" d="M681 222L682 223L681 222z"/>
<path style="fill:#eee9f0; stroke:none;" d="M847 222L848 223L847 222M903.333 222.667L903.667 223.333L903.333 222.667M627.333 223.667L627.667 224.333L627.333 223.667M680 223L681 224L680 223z"/>
<path style="fill:#e3dae7; stroke:none;" d="M680 224L681 225L680 224M848 224L849 225L848 224z"/>
<path style="fill:#d5c8db; stroke:none;" d="M680 225L681 226L680 225M848 225L849 226L848 225z"/>
<path style="fill:#eee9f0; stroke:none;" d="M849 226L850 227L849 226z"/>
<path style="fill:#d5c8db; stroke:none;" d="M904.333 226.667L904.667 227.333L904.333 226.667z"/>
<path style="fill:#eee9f0; stroke:none;" d="M679 227L680 228L679 227z"/>
<path style="fill:#d5c8db; stroke:none;" d="M849 227L850 228L849 227M626 228L626 231L627 231L626 228z"/>
<path style="fill:#e3dae7; stroke:none;" d="M679.333 228.667L679.667 229.333L679.333 228.667M904.333 228.667L904.667 229.333L904.333 228.667M850 229L851 230L850 229z"/>
<path style="fill:#d5c8db; stroke:none;" d="M679 230L680 231L679 230M850 230L851 231L850 230z"/>
<path style="fill:#eee9f0; stroke:none;" d="M904 230L904 233L905 233L904 230z"/>
<path style="fill:#e3dae7; stroke:none;" d="M626 231L626 248L627 248L626 231M851 232L852 233L851 232z"/>
<path style="fill:#eee9f0; stroke:none;" d="M678 233L678 244L679 244L678 233z"/>
<path style="fill:#d5c8db; stroke:none;" d="M851 233L852 234L851 233z"/>
<path style="fill:#eee9f0; stroke:none;" d="M852 235L853 236L852 235z"/>
<path style="fill:#e3dae7; stroke:none;" d="M852.333 236.667L852.667 237.333L852.333 236.667z"/>
<path style="fill:#d5c8db; stroke:none;" d="M852 238L852 251L853 251L852 238M679 247L680 248L679 247M626 248L626 252L627 252L626 248z"/>
<path style="fill:#e3dae7; stroke:none;" d="M679.333 248.667L679.667 249.333L679.333 248.667z"/>
<path style="fill:#eee9f0; stroke:none;" d="M679 250L680 251L679 250z"/>
<path style="fill:#d5c8db; stroke:none;" d="M853 251L853 252L905 252L888 251L853 251M680 252L681 253L680 252z"/>
<path style="fill:#e3dae7; stroke:none;" d="M680 253L681 254L680 253z"/>
<path style="fill:#eee9f0; stroke:none;" d="M627 254L627 257L628 257L627 254z"/>
<path style="fill:#d5c8db; stroke:none;" d="M681 255L682 256L681 255z"/>
<path style="fill:#e3dae7; stroke:none;" d="M681 256L682 257L681 256M627.333 257.667L627.667 258.333L627.333 257.667M682 258L683 259L682 258z"/>
<path style="fill:#d5c8db; stroke:none;" d="M627 259L628 260L627 259z"/>
<path style="fill:#e3dae7; stroke:none;" d="M683 260L684 261L683 260z"/>
<path style="fill:#eee9f0; stroke:none;" d="M628.333 262.667L628.667 263.333L628.333 262.667z"/>
<path style="fill:#e3dae7; stroke:none;" d="M684 262L685 263L684 262z"/>
<path style="fill:#d5c8db; stroke:none;" d="M685 263L686 264L685 263z"/>
<path style="fill:#e3dae7; stroke:none;" d="M628 264L629 265L628 264z"/>
<path style="fill:#d5c8db; stroke:none;" d="M628 265L629 266L628 265z"/>
<path style="fill:#eee9f0; stroke:none;" d="M686 265L687 266L686 265z"/>
<path style="fill:#e3dae7; stroke:none;" d="M687 266L688 267L687 266z"/>
<path style="fill:#eee9f0; stroke:none;" d="M629.333 267.667L629.667 268.333L629.333 267.667z"/>
<path style="fill:#e3dae7; stroke:none;" d="M688 267L689 268L688 267M689 268L690 269L689 268M629 269L630 270L629 269M690 269L691 270L690 269z"/>
<path style="fill:#d5c8db; stroke:none;" d="M629 270L630 271L629 270z"/>
<path style="fill:#e3dae7; stroke:none;" d="M691 270L692 271L691 270z"/>
<path style="fill:#eee9f0; stroke:none;" d="M692 271L693 272L692 271M630 272L631 273L630 272M693 272L694 273L693 272z"/>
<path style="fill:#d5c8db; stroke:none;" d="M694 272L695 273L694 272M630 273L631 274L630 273M695 273L696 274L695 273z"/>
<path style="fill:#eee9f0; stroke:none;" d="M696 274L697 275L696 274M631 275L632 276L631 275M697 275L698 276L697 275z"/>
<path style="fill:#d5c8db; stroke:none;" d="M698 275L699 276L698 275z"/>
<path style="fill:#e3dae7; stroke:none;" d="M631 276L632 277L631 276M699 276L700 277L699 276z"/>
<path style="fill:#d5c8db; stroke:none;" d="M631 277L632 278L631 277M701 277L702 278L701 277z"/>
<path style="fill:#eee9f0; stroke:none;" d="M632 278L633 279L632 278M702 278L703 279L702 278z"/>
<path style="fill:#d5c8db; stroke:none;" d="M703 278L704 279L703 278z"/>
<path style="fill:#e3dae7; stroke:none;" d="M632 279L633 280L632 279z"/>
<path style="fill:#eee9f0; stroke:none;" d="M704 279L705 280L704 279z"/>
<path style="fill:#d5c8db; stroke:none;" d="M705 279L706 280L705 279z"/>
<path style="fill:#eee9f0; stroke:none;" d="M706 280L707 281L706 280z"/>
<path style="fill:#d5c8db; stroke:none;" d="M707 280L708 281L707 280z"/>
<path style="fill:#eee9f0; stroke:none;" d="M633 281L634 282L633 281M708 281L709 282L708 281z"/>
<path style="fill:#d5c8db; stroke:none;" d="M709 281L710 282L709 281M633 282L634 283L633 282z"/>
<path style="fill:#eee9f0; stroke:none;" d="M710 282L711 283L710 282z"/>
<path style="fill:#e3dae7; stroke:none;" d="M711 282L712 283L711 282z"/>
<path style="fill:#eee9f0; stroke:none;" d="M634 283L635 284L634 283M713 283L714 284L713 283z"/>
<path style="fill:#d5c8db; stroke:none;" d="M714 283L715 284L714 283z"/>
<path style="fill:#e3dae7; stroke:none;" d="M634 284L635 285L634 284M716 284L717 285L716 284z"/>
<path style="fill:#d5c8db; stroke:none;" d="M717 284L718 285L717 284z"/>
<path style="fill:#e3dae7; stroke:none;" d="M719 285L720 286L719 285z"/>
<path style="fill:#d5c8db; stroke:none;" d="M720 285L721 286L720 285z"/>
<path style="fill:#e3dae7; stroke:none;" d="M635 286L636 287L635 286z"/>
<path style="fill:#eee9f0; stroke:none;" d="M722 286L723 287L722 286z"/>
<path style="fill:#e3dae7; stroke:none;" d="M723 286L724 287L723 286z"/>
<path style="fill:#d5c8db; stroke:none;" d="M724 286L725 287L724 286z"/>
<path style="fill:#e3dae7; stroke:none;" d="M726 287L727 288L726 287z"/>
<path style="fill:#d5c8db; stroke:none;" d="M727 287L728 288L727 287z"/>
<path style="fill:#e3dae7; stroke:none;" d="M636 288L637 289L636 288z"/>
<path style="fill:#eee9f0; stroke:none;" d="M729.667 288.333L730.333 288.667L729.667 288.333z"/>
<path style="fill:#e3dae7; stroke:none;" d="M731 288L732 289L731 288z"/>
<path style="fill:#d5c8db; stroke:none;" d="M732 288L733 289L732 288z"/>
<path style="fill:#eee9f0; stroke:none;" d="M734 289L735 290L734 289z"/>
<path style="fill:#e3dae7; stroke:none;" d="M735 289L736 290L735 289z"/>
<path style="fill:#d5c8db; stroke:none;" d="M736.667 289.333L737.333 289.667L736.667 289.333z"/>
<path style="fill:#e3dae7; stroke:none;" d="M637 290L638 291L637 290z"/>
<path style="fill:#eee9f0; stroke:none;" d="M739 290L740 291L739 290z"/>
<path style="fill:#e3dae7; stroke:none;" d="M740.667 290.333L741.333 290.667L740.667 290.333z"/>
<path style="fill:#d5c8db; stroke:none;" d="M742 290L743 291L742 290z"/>
<path style="fill:#eee9f0; stroke:none;" d="M638 291L639 292L638 291M745 291L746 292L745 291z"/>
<path style="fill:#e3dae7; stroke:none;" d="M746.667 291.333L747.333 291.667L746.667 291.333z"/>
<path style="fill:#d5c8db; stroke:none;" d="M748.667 291.333L749.333 291.667L748.667 291.333M638 292L639 293L638 292z"/>
<path style="fill:#eee9f0; stroke:none;" d="M752.667 292.333L753.333 292.667L752.667 292.333z"/>
<path style="fill:#e3dae7; stroke:none;" d="M754.667 292.333L755.333 292.667L754.667 292.333z"/>
<path style="fill:#d5c8db; stroke:none;" d="M756.667 292.333L757.333 292.667L756.667 292.333z"/>
<path style="fill:#eee9f0; stroke:none;" d="M639 293L640 294L639 293M761.667 293.333L762.333 293.667L761.667 293.333z"/>
<path style="fill:#e3dae7; stroke:none;" d="M763.667 293.333L764.333 293.667L763.667 293.333z"/>
<path style="fill:#d5c8db; stroke:none;" d="M765.667 293.333L766.333 293.667L765.667 293.333z"/>
<path style="fill:#eee9f0; stroke:none;" d="M769.667 294.333L770.333 294.667L769.667 294.333z"/>
<path style="fill:#e3dae7; stroke:none;" d="M771.667 294.333L772.333 294.667L771.667 294.333z"/>
<path style="fill:#d5c8db; stroke:none;" d="M773.667 294.333L774.333 294.667L773.667 294.333z"/>
<path style="fill:#e3dae7; stroke:none;" d="M640 295L641 296L640 295z"/>
<path style="fill:#eee9f0; stroke:none;" d="M777.667 295.333L778.333 295.667L777.667 295.333z"/>
<path style="fill:#e3dae7; stroke:none;" d="M779.667 295.333L780.333 295.667L779.667 295.333z"/>
<path style="fill:#d5c8db; stroke:none;" d="M781.667 295.333L782.333 295.667L781.667 295.333z"/>
<path style="fill:#eee9f0; stroke:none;" d="M641 296L642 297L641 296M785.667 296.333L786.333 296.667L785.667 296.333z"/>
<path style="fill:#e3dae7; stroke:none;" d="M787.667 296.333L788.333 296.667L787.667 296.333z"/>
<path style="fill:#d5c8db; stroke:none;" d="M789.667 296.333L790.333 296.667L789.667 296.333M641 297L642 298L641 297z"/>
<path style="fill:#eee9f0; stroke:none;" d="M792.667 297.333L793.333 297.667L792.667 297.333z"/>
<path style="fill:#e3dae7; stroke:none;" d="M794.667 297.333L795.333 297.667L794.667 297.333z"/>
<path style="fill:#d5c8db; stroke:none;" d="M796.667 297.333L797.333 297.667L796.667 297.333z"/>
<path style="fill:#e3dae7; stroke:none;" d="M642 298L643 299L642 298z"/>
<path style="fill:#eee9f0; stroke:none;" d="M799.667 298.333L800.333 298.667L799.667 298.333z"/>
<path style="fill:#e3dae7; stroke:none;" d="M801.667 298.333L802.333 298.667L801.667 298.333z"/>
<path style="fill:#d5c8db; stroke:none;" d="M803 298L804 299L803 298z"/>
<path style="fill:#eee9f0; stroke:none;" d="M643 299L644 300L643 299M806.667 299.333L807.333 299.667L806.667 299.333z"/>
<path style="fill:#e3dae7; stroke:none;" d="M808 299L809 300L808 299z"/>
<path style="fill:#d5c8db; stroke:none;" d="M809.667 299.333L810.333 299.667L809.667 299.333z"/>
<path style="fill:#eee9f0; stroke:none;" d="M812.667 300.333L813.333 300.667L812.667 300.333z"/>
<path style="fill:#e3dae7; stroke:none;" d="M814 300L815 301L814 300z"/>
<path style="fill:#d5c8db; stroke:none;" d="M815 300L816 301L815 300M644 301L645 302L644 301z"/>
<path style="fill:#eee9f0; stroke:none;" d="M818 301L819 302L818 301z"/>
<path style="fill:#e3dae7; stroke:none;" d="M819.667 301.333L820.333 301.667L819.667 301.333z"/>
<path style="fill:#d5c8db; stroke:none;" d="M821 301L822 302L821 301z"/>
<path style="fill:#e3dae7; stroke:none;" d="M645 302L646 303L645 302z"/>
<path style="fill:#eee9f0; stroke:none;" d="M823 302L824 303L823 302z"/>
<path style="fill:#e3dae7; stroke:none;" d="M824.667 302.333L825.333 302.667L824.667 302.333z"/>
<path style="fill:#d5c8db; stroke:none;" d="M826 302L827 303L826 302z"/>
<path style="fill:#eee9f0; stroke:none;" d="M646 303L647 304L646 303M828 303L829 304L828 303z"/>
<path style="fill:#e3dae7; stroke:none;" d="M829.667 303.333L830.333 303.667L829.667 303.333z"/>
<path style="fill:#d5c8db; stroke:none;" d="M831 303L832 304L831 303z"/>
<path style="fill:#eee9f0; stroke:none;" d="M833 304L834 305L833 304z"/>
<path style="fill:#e3dae7; stroke:none;" d="M834 304L835 305L834 304z"/>
<path style="fill:#d5c8db; stroke:none;" d="M835 304L836 305L835 304M647 305L648 306L647 305z"/>
<path style="fill:#eee9f0; stroke:none;" d="M837 305L838 306L837 305z"/>
<path style="fill:#e3dae7; stroke:none;" d="M838.667 305.333L839.333 305.667L838.667 305.333z"/>
<path style="fill:#d5c8db; stroke:none;" d="M840 305L841 306L840 305M648 306L649 307L648 306z"/>
<path style="fill:#eee9f0; stroke:none;" d="M842 306L843 307L842 306z"/>
<path style="fill:#e3dae7; stroke:none;" d="M843 306L844 307L843 306z"/>
<path style="fill:#d5c8db; stroke:none;" d="M844 306L845 307L844 306M649 307L650 308L649 307z"/>
<path style="fill:#eee9f0; stroke:none;" d="M846 307L847 308L846 307z"/>
<path style="fill:#e3dae7; stroke:none;" d="M847 307L848 308L847 307z"/>
<path style="fill:#d5c8db; stroke:none;" d="M848 307L849 308L848 307z"/>
<path style="fill:#e3dae7; stroke:none;" d="M650 308L651 309L650 308z"/>
<path style="fill:#eee9f0; stroke:none;" d="M850 308L851 309L850 308z"/>
<path style="fill:#d5c8db; stroke:none;" d="M851 308L852 309L851 308z"/>
<path style="fill:#e3dae7; stroke:none;" d="M651 309L652 310L651 309z"/>
<path style="fill:#eee9f0; stroke:none;" d="M853 309L854 310L853 309z"/>
<path style="fill:#e3dae7; stroke:none;" d="M854 309L855 310L854 309M652 310L653 311L652 310z"/>
<path style="fill:#eee9f0; stroke:none;" d="M856 310L857 311L856 310z"/>
<path style="fill:#e3dae7; stroke:none;" d="M857 310L858 311L857 310M653 311L654 312L653 311z"/>
<path style="fill:#eee9f0; stroke:none;" d="M859 311L860 312L859 311z"/>
<path style="fill:#d5c8db; stroke:none;" d="M860 311L861 312L860 311z"/>
<path style="fill:#e3dae7; stroke:none;" d="M654 312L655 313L654 312M862 312L863 313L862 312z"/>
<path style="fill:#d5c8db; stroke:none;" d="M863 312L864 313L863 312z"/>
<path style="fill:#e3dae7; stroke:none;" d="M655 313L656 314L655 313z"/>
<path style="fill:#eee9f0; stroke:none;" d="M864 313L865 314L864 313z"/>
<path style="fill:#d5c8db; stroke:none;" d="M865 313L866 314L865 313M656 314L657 315L656 314z"/>
<path style="fill:#eee9f0; stroke:none;" d="M866 314L867 315L866 314z"/>
<path style="fill:#e3dae7; stroke:none;" d="M867 314L868 315L867 314z"/>
<path style="fill:#d5c8db; stroke:none;" d="M657 315L658 316L657 315z"/>
<path style="fill:#e3dae7; stroke:none;" d="M869 315L870 316L869 315z"/>
<path style="fill:#d5c8db; stroke:none;" d="M658 316L659 317L658 316z"/>
<path style="fill:#eee9f0; stroke:none;" d="M659 316L660 317L659 316z"/>
<path style="fill:#e3dae7; stroke:none;" d="M871 316L872 317L871 316z"/>
<path style="fill:#eee9f0; stroke:none;" d="M660 317L661 318L660 317z"/>
<path style="fill:#e3dae7; stroke:none;" d="M873 317L874 318L873 317M661 318L662 319L661 318M875 318L876 319L875 318z"/>
<path style="fill:#d5c8db; stroke:none;" d="M662 319L663 320L662 319z"/>
<path style="fill:#eee9f0; stroke:none;" d="M876 319L877 320L876 319z"/>
<path style="fill:#d5c8db; stroke:none;" d="M877 319L878 320L877 319z"/>
<path style="fill:#eee9f0; stroke:none;" d="M664 320L665 321L664 320M878 320L879 321L878 320z"/>
<path style="fill:#e3dae7; stroke:none;" d="M665 321L666 322L665 321M880 321L881 322L880 321z"/>
<path style="fill:#eee9f0; stroke:none;" d="M667 322L668 323L667 322M881 322L882 323L881 322z"/>
<path style="fill:#d5c8db; stroke:none;" d="M882 322L883 323L882 322M668 323L669 324L668 323z"/>
<path style="fill:#e3dae7; stroke:none;" d="M883 323L884 324L883 323M670 324L671 325L670 324z"/>
<path style="fill:#eee9f0; stroke:none;" d="M884 324L885 325L884 324z"/>
<path style="fill:#d5c8db; stroke:none;" d="M885 324L886 325L885 324z"/>
<path style="fill:#eee9f0; stroke:none;" d="M672 325L673 326L672 325z"/>
<path style="fill:#e3dae7; stroke:none;" d="M886 325L887 326L886 325z"/>
<path style="fill:#d5c8db; stroke:none;" d="M673 326L674 327L673 326z"/>
<path style="fill:#eee9f0; stroke:none;" d="M674 326L675 327L674 326M887 326L888 327L887 326z"/>
<path style="fill:#d5c8db; stroke:none;" d="M675 327L676 328L675 327z"/>
<path style="fill:#eee9f0; stroke:none;" d="M676 327L677 328L676 327M888 327L889 328L888 327z"/>
<path style="fill:#d5c8db; stroke:none;" d="M889 327L890 328L889 327M677 328L678 329L677 328z"/>
<path style="fill:#eee9f0; stroke:none;" d="M678 328L679 329L678 328z"/>
<path style="fill:#d5c8db; stroke:none;" d="M890 328L891 329L890 328M679 329L680 330L679 329z"/>
<path style="fill:#eee9f0; stroke:none;" d="M680 329L681 330L680 329z"/>
<path style="fill:#e3dae7; stroke:none;" d="M891 329L892 330L891 329z"/>
<path style="fill:#d5c8db; stroke:none;" d="M681 330L682 331L681 330z"/>
<path style="fill:#eee9f0; stroke:none;" d="M682 330L683 331L682 330z"/>
<path style="fill:#e3dae7; stroke:none;" d="M892 330L893 331L892 330M684 331L685 332L684 331M893 331L894 332L893 331z"/>
<path style="fill:#d5c8db; stroke:none;" d="M686 332L687 333L686 332z"/>
<path style="fill:#eee9f0; stroke:none;" d="M687 332L688 333L687 332M894 332L895 333L894 332z"/>
<path style="fill:#e3dae7; stroke:none;" d="M689 333L690 334L689 333z"/>
<path style="fill:#eee9f0; stroke:none;" d="M690 333L691 334L690 333M895 333L896 334L895 333z"/>
<path style="fill:#d5c8db; stroke:none;" d="M691 334L692 335L691 334z"/>
<path style="fill:#e3dae7; stroke:none;" d="M692 334L693 335L692 334z"/>
<path style="fill:#eee9f0; stroke:none;" d="M693 334L694 335L693 334M896 334L897 335L896 334z"/>
<path style="fill:#e3dae7; stroke:none;" d="M695 335L696 336L695 335z"/>
<path style="fill:#eee9f0; stroke:none;" d="M696 335L697 336L696 335M897 335L898 336L897 335z"/>
<path style="fill:#d5c8db; stroke:none;" d="M698 336L699 337L698 336z"/>
<path style="fill:#e3dae7; stroke:none;" d="M699 336L700 337L699 336z"/>
<path style="fill:#eee9f0; stroke:none;" d="M700 336L701 337L700 336M898 336L899 337L898 336z"/>
<path style="fill:#d5c8db; stroke:none;" d="M702 337L703 338L702 337z"/>
<path style="fill:#e3dae7; stroke:none;" d="M703 337L704 338L703 337z"/>
<path style="fill:#eee9f0; stroke:none;" d="M704 337L705 338L704 337z"/>
<path style="fill:#e3dae7; stroke:none;" d="M899 337L900 338L899 337z"/>
<path style="fill:#d5c8db; stroke:none;" d="M706 338L707 339L706 338z"/>
<path style="fill:#e3dae7; stroke:none;" d="M707 338L708 339L707 338z"/>
<path style="fill:#eee9f0; stroke:none;" d="M708 338L709 339L708 338z"/>
<path style="fill:#e3dae7; stroke:none;" d="M900 338L901 339L900 338z"/>
<path style="fill:#d5c8db; stroke:none;" d="M710.667 339.333L711.333 339.667L710.667 339.333z"/>
<path style="fill:#e3dae7; stroke:none;" d="M712 339L713 340L712 339z"/>
<path style="fill:#eee9f0; stroke:none;" d="M713 339L714 340L713 339z"/>
<path style="fill:#d5c8db; stroke:none;" d="M901 339L902 340L901 339M715 340L716 341L715 340z"/>
<path style="fill:#e3dae7; stroke:none;" d="M716.667 340.333L717.333 340.667L716.667 340.333z"/>
<path style="fill:#eee9f0; stroke:none;" d="M718 340L719 341L718 340z"/>
<path style="fill:#d5c8db; stroke:none;" d="M902 340L903 341L902 340M720 341L721 342L720 341z"/>
<path style="fill:#e3dae7; stroke:none;" d="M721.667 341.333L722.333 341.667L721.667 341.333z"/>
<path style="fill:#eee9f0; stroke:none;" d="M723 341L724 342L723 341z"/>
<path style="fill:#d5c8db; stroke:none;" d="M726 342L727 343L726 342z"/>
<path style="fill:#e3dae7; stroke:none;" d="M727 342L728 343L727 342z"/>
<path style="fill:#eee9f0; stroke:none;" d="M728.667 342.333L729.333 342.667L728.667 342.333M903 342L904 343L903 342z"/>
<path style="fill:#d5c8db; stroke:none;" d="M731.667 343.333L732.333 343.667L731.667 343.333z"/>
<path style="fill:#e3dae7; stroke:none;" d="M733 343L734 344L733 343z"/>
<path style="fill:#eee9f0; stroke:none;" d="M734.667 343.333L735.333 343.667L734.667 343.333z"/>
<path style="fill:#e3dae7; stroke:none;" d="M904 343L905 344L904 343z"/>
<path style="fill:#d5c8db; stroke:none;" d="M737.667 344.333L738.333 344.667L737.667 344.333z"/>
<path style="fill:#e3dae7; stroke:none;" d="M739.667 344.333L740.333 344.667L739.667 344.333z"/>
<path style="fill:#eee9f0; stroke:none;" d="M741.667 344.333L742.333 344.667L741.667 344.333z"/>
<path style="fill:#d5c8db; stroke:none;" d="M905 344L906 345L905 344M744.667 345.333L745.333 345.667L744.667 345.333z"/>
<path style="fill:#e3dae7; stroke:none;" d="M746.667 345.333L747.333 345.667L746.667 345.333z"/>
<path style="fill:#eee9f0; stroke:none;" d="M748.667 345.333L749.333 345.667L748.667 345.333z"/>
<path style="fill:#d5c8db; stroke:none;" d="M752.667 346.333L753.333 346.667L752.667 346.333z"/>
<path style="fill:#e3dae7; stroke:none;" d="M754.667 346.333L755.333 346.667L754.667 346.333z"/>
<path style="fill:#eee9f0; stroke:none;" d="M756.667 346.333L757.333 346.667L756.667 346.333M906 346L907 347L906 346z"/>
<path style="fill:#d5c8db; stroke:none;" d="M760.667 347.333L761.333 347.667L760.667 347.333z"/>
<path style="fill:#e3dae7; stroke:none;" d="M762.667 347.333L763.333 347.667L762.667 347.333z"/>
<path style="fill:#eee9f0; stroke:none;" d="M764.667 347.333L765.333 347.667L764.667 347.333z"/>
<path style="fill:#e3dae7; stroke:none;" d="M907 347L908 348L907 347z"/>
<path style="fill:#d5c8db; stroke:none;" d="M768.667 348.333L769.333 348.667L768.667 348.333z"/>
<path style="fill:#e3dae7; stroke:none;" d="M770.667 348.333L771.333 348.667L770.667 348.333z"/>
<path style="fill:#eee9f0; stroke:none;" d="M772.667 348.333L773.333 348.667L772.667 348.333z"/>
<path style="fill:#d5c8db; stroke:none;" d="M776.667 349.333L777.333 349.667L776.667 349.333z"/>
<path style="fill:#e3dae7; stroke:none;" d="M778.667 349.333L779.333 349.667L778.667 349.333z"/>
<path style="fill:#eee9f0; stroke:none;" d="M780 349L780 350L783 350L780 349M908 349L909 350L908 349z"/>
<path style="fill:#d5c8db; stroke:none;" d="M785.667 350.333L786.333 350.667L785.667 350.333z"/>
<path style="fill:#e3dae7; stroke:none;" d="M787.667 350.333L788.333 350.667L787.667 350.333z"/>
<path style="fill:#eee9f0; stroke:none;" d="M789.667 350.333L790.333 350.667L789.667 350.333z"/>
<path style="fill:#d5c8db; stroke:none;" d="M909 350L910 351L909 350M794.667 351.333L795.333 351.667L794.667 351.333z"/>
<path style="fill:#e3dae7; stroke:none;" d="M796.667 351.333L797.333 351.667L796.667 351.333z"/>
<path style="fill:#eee9f0; stroke:none;" d="M798.667 351.333L799.333 351.667L798.667 351.333z"/>
<path style="fill:#d5c8db; stroke:none;" d="M801.667 352.333L802.333 352.667L801.667 352.333z"/>
<path style="fill:#e3dae7; stroke:none;" d="M803.667 352.333L804.333 352.667L803.667 352.333z"/>
<path style="fill:#eee9f0; stroke:none;" d="M805 352L806 353L805 352z"/>
<path style="fill:#e3dae7; stroke:none;" d="M910 352L911 353L910 352z"/>
<path style="fill:#d5c8db; stroke:none;" d="M808 353L809 354L808 353z"/>
<path style="fill:#e3dae7; stroke:none;" d="M809 353L810 354L809 353z"/>
<path style="fill:#eee9f0; stroke:none;" d="M810.667 353.333L811.333 353.667L810.667 353.333z"/>
<path style="fill:#d5c8db; stroke:none;" d="M813 354L814 355L813 354z"/>
<path style="fill:#e3dae7; stroke:none;" d="M814 354L815 355L814 354z"/>
<path style="fill:#eee9f0; stroke:none;" d="M815 354L816 355L815 354M911 354L912 355L911 354z"/>
<path style="fill:#d5c8db; stroke:none;" d="M817 355L818 356L817 355z"/>
<path style="fill:#e3dae7; stroke:none;" d="M818 355L819 356L818 355z"/>
<path style="fill:#eee9f0; stroke:none;" d="M819 355L820 356L819 355z"/>
<path style="fill:#d5c8db; stroke:none;" d="M912 355L913 356L912 355M821 356L822 357L821 356z"/>
<path style="fill:#e3dae7; stroke:none;" d="M822 356L823 357L822 356z"/>
<path style="fill:#eee9f0; stroke:none;" d="M823 356L824 357L823 356M912 356L913 357L912 356z"/>
<path style="fill:#d5c8db; stroke:none;" d="M825 357L826 358L825 357z"/>
<path style="fill:#e3dae7; stroke:none;" d="M826 357L827 358L826 357z"/>
<path style="fill:#eee9f0; stroke:none;" d="M827 357L828 358L827 357z"/>
<path style="fill:#d5c8db; stroke:none;" d="M913 357L914 358L913 357M828 358L829 359L828 358z"/>
<path style="fill:#e3dae7; stroke:none;" d="M829 358L830 359L829 358z"/>
<path style="fill:#eee9f0; stroke:none;" d="M830 358L831 359L830 358M913 358L914 359L913 358z"/>
<path style="fill:#e3dae7; stroke:none;" d="M832 359L833 360L832 359z"/>
<path style="fill:#eee9f0; stroke:none;" d="M833 359L834 360L833 359z"/>
<path style="fill:#d5c8db; stroke:none;" d="M914 359L915 360L914 359M834 360L835 361L834 360z"/>
<path style="fill:#e3dae7; stroke:none;" d="M835 360L836 361L835 360z"/>
<path style="fill:#eee9f0; stroke:none;" d="M914 360L915 361L914 360z"/>
<path style="fill:#d5c8db; stroke:none;" d="M837 361L838 362L837 361z"/>
<path style="fill:#eee9f0; stroke:none;" d="M838 361L839 362L838 361z"/>
<path style="fill:#d5c8db; stroke:none;" d="M839 362L840 363L839 362z"/>
<path style="fill:#eee9f0; stroke:none;" d="M840 362L841 363L840 362z"/>
<path style="fill:#e3dae7; stroke:none;" d="M915 362L916 363L915 362z"/>
<path style="fill:#d5c8db; stroke:none;" d="M841 363L842 364L841 363z"/>
<path style="fill:#eee9f0; stroke:none;" d="M842 363L843 364L842 363z"/>
<path style="fill:#d5c8db; stroke:none;" d="M843 364L844 365L843 364z"/>
<path style="fill:#eee9f0; stroke:none;" d="M844 364L845 365L844 364z"/>
<path style="fill:#d5c8db; stroke:none;" d="M916 364L917 365L916 364M845 365L846 366L845 365z"/>
<path style="fill:#eee9f0; stroke:none;" d="M846 365L847 366L846 365M916 365L917 366L916 365z"/>
<path style="fill:#e3dae7; stroke:none;" d="M847 366L848 367L847 366z"/>
<path style="fill:#d5c8db; stroke:none;" d="M848 367L849 368L848 367z"/>
<path style="fill:#eee9f0; stroke:none;" d="M849 367L850 368L849 367z"/>
<path style="fill:#d5c8db; stroke:none;" d="M917 367L918 368L917 367z"/>
<path style="fill:#e3dae7; stroke:none;" d="M850 368L851 369L850 368z"/>
<path style="fill:#eee9f0; stroke:none;" d="M917 368L918 369L917 368z"/>
<path style="fill:#d5c8db; stroke:none;" d="M851 369L852 370L851 369z"/>
<path style="fill:#eee9f0; stroke:none;" d="M852 369L853 370L852 369M853 370L854 371L853 370z"/>
<path style="fill:#d5c8db; stroke:none;" d="M918 370L919 371L918 370z"/>
<path style="fill:#e3dae7; stroke:none;" d="M854 371L855 372L854 371M918 371L919 372L918 371z"/>
<path style="fill:#d5c8db; stroke:none;" d="M855 372L856 373L855 372z"/>
<path style="fill:#eee9f0; stroke:none;" d="M918 372L919 373L918 372z"/>
<path style="fill:#d5c8db; stroke:none;" d="M614 373L615 374L614 373z"/>
<path style="fill:#e3dae7; stroke:none;" d="M615 373L615 374L667 374L650 373L615 373z"/>
<path style="fill:#d5c8db; stroke:none;" d="M667 373L668 374L667 373M856 373L857 374L856 373z"/>
<path style="fill:#eee9f0; stroke:none;" d="M614 374L614 385L615 385L614 374M667 374L667 395L668 395L667 374z"/>
<path style="fill:#d5c8db; stroke:none;" d="M857 374L858 375L857 374M919 374L920 375L919 374M858 375L859 376L858 375z"/>
<path style="fill:#e3dae7; stroke:none;" d="M919 375L920 376L919 375z"/>
<path style="fill:#d5c8db; stroke:none;" d="M859 376L860 377L859 376z"/>
<path style="fill:#eee9f0; stroke:none;" d="M919 376L920 377L919 376z"/>
<path style="fill:#d5c8db; stroke:none;" d="M860 377L861 378L860 377z"/>
<path style="fill:#e3dae7; stroke:none;" d="M861 378L862 379L861 378z"/>
<path style="fill:#d5c8db; stroke:none;" d="M920 378L921 379L920 378z"/>
<path style="fill:#eee9f0; stroke:none;" d="M862 379L863 380L862 379z"/>
<path style="fill:#e3dae7; stroke:none;" d="M920.333 379.667L920.667 380.333L920.333 379.667M863 381L864 382L863 381z"/>
<path style="fill:#eee9f0; stroke:none;" d="M920 381L921 382L920 381M864 382L865 383L864 382z"/>
<path style="fill:#d5c8db; stroke:none;" d="M864 383L865 384L864 383z"/>
<path style="fill:#eee9f0; stroke:none;" d="M865 384L866 385L865 384z"/>
<path style="fill:#d5c8db; stroke:none;" d="M921.333 384.667L921.667 385.333L921.333 384.667z"/>
<path style="fill:#e3dae7; stroke:none;" d="M614 385L614 389L615 389L614 385z"/>
<path style="fill:#d5c8db; stroke:none;" d="M865 385L866 386L865 385z"/>
<path style="fill:#eee9f0; stroke:none;" d="M866 386L867 387L866 386z"/>
<path style="fill:#e3dae7; stroke:none;" d="M921.333 386.667L921.667 387.333L921.333 386.667M866 387L867 388L866 387z"/>
<path style="fill:#eee9f0; stroke:none;" d="M921.333 388.667L921.667 389.333L921.333 388.667z"/>
<path style="fill:#d5c8db; stroke:none;" d="M614 389L614 392L615 392L614 389z"/>
<path style="fill:#eee9f0; stroke:none;" d="M867 389L868 390L867 389z"/>
<path style="fill:#d5c8db; stroke:none;" d="M867 390L868 391L867 390z"/>
<path style="fill:#eee9f0; stroke:none;" d="M868 392L869 393L868 392z"/>
<path style="fill:#e3dae7; stroke:none;" d="M868.333 393.667L868.667 394.333L868.333 393.667z"/>
<path style="fill:#d5c8db; stroke:none;" d="M922 393L922 396L923 396L922 393z"/>
<path style="fill:#eee9f0; stroke:none;" d="M615 395L615 398L616 398L615 395z"/>
<path style="fill:#d5c8db; stroke:none;" d="M868 395L869 396L868 395z"/>
<path style="fill:#e3dae7; stroke:none;" d="M922 396L922 415L923 415L922 396z"/>
<path style="fill:#d5c8db; stroke:none;" d="M668.333 397.667L668.667 398.333L668.333 397.667z"/>
<path style="fill:#e3dae7; stroke:none;" d="M615.333 398.667L615.667 399.333L615.333 398.667z"/>
<path style="fill:#eee9f0; stroke:none;" d="M869.333 398.667L869.667 399.333L869.333 398.667z"/>
<path style="fill:#e3dae7; stroke:none;" d="M668 399L669 400L668 399z"/>
<path style="fill:#d5c8db; stroke:none;" d="M615.333 400.667L615.667 401.333L615.333 400.667z"/>
<path style="fill:#eee9f0; stroke:none;" d="M668.333 400.667L668.667 401.333L668.333 400.667z"/>
<path style="fill:#e3dae7; stroke:none;" d="M869 400L869 411L870 411L869 400z"/>
<path style="fill:#d5c8db; stroke:none;" d="M669 403L670 404L669 403z"/>
<path style="fill:#eee9f0; stroke:none;" d="M616 404L617 405L616 404z"/>
<path style="fill:#e3dae7; stroke:none;" d="M669 404L670 405L669 404M616.333 405.667L616.667 406.333L616.333 405.667z"/>
<path style="fill:#eee9f0; stroke:none;" d="M669.333 405.667L669.667 406.333L669.333 405.667z"/>
<path style="fill:#d5c8db; stroke:none;" d="M616.333 407.667L616.667 408.333L616.333 407.667M670 408L671 409L670 408z"/>
<path style="fill:#eee9f0; stroke:none;" d="M670 409L671 410L670 409M617 410L618 411L617 410z"/>
<path style="fill:#e3dae7; stroke:none;" d="M617.333 411.667L617.667 412.333L617.333 411.667z"/>
<path style="fill:#d5c8db; stroke:none;" d="M671 411L672 412L671 411z"/>
<path style="fill:#eee9f0; stroke:none;" d="M869 411L869 414L870 414L869 411z"/>
<path style="fill:#e3dae7; stroke:none;" d="M671 412L672 413L671 412z"/>
<path style="fill:#d5c8db; stroke:none;" d="M617 413L618 414L617 413z"/>
<path style="fill:#eee9f0; stroke:none;" d="M671 413L672 414L671 413z"/>
<path style="fill:#d5c8db; stroke:none;" d="M672 414L673 415L672 414z"/>
<path style="fill:#eee9f0; stroke:none;" d="M618.333 415.667L618.667 416.333L618.333 415.667z"/>
<path style="fill:#e3dae7; stroke:none;" d="M672 415L673 416L672 415z"/>
<path style="fill:#d5c8db; stroke:none;" d="M922 415L922 419L923 419L922 415z"/>
<path style="fill:#eee9f0; stroke:none;" d="M672 416L673 417L672 416z"/>
<path style="fill:#d5c8db; stroke:none;" d="M868 416L869 417L868 416z"/>
<path style="fill:#e3dae7; stroke:none;" d="M618 417L619 418L618 417z"/>
<path style="fill:#d5c8db; stroke:none;" d="M673 417L674 418L673 417z"/>
<path style="fill:#e3dae7; stroke:none;" d="M868 417L869 418L868 417z"/>
<path style="fill:#d5c8db; stroke:none;" d="M618 418L619 419L618 418z"/>
<path style="fill:#eee9f0; stroke:none;" d="M673 418L674 419L673 418M868.333 418.667L868.667 419.333L868.333 418.667M619 420L620 421L619 420z"/>
<path style="fill:#e3dae7; stroke:none;" d="M674 420L675 421L674 420M619 421L620 422L619 421z"/>
<path style="fill:#d5c8db; stroke:none;" d="M867 421L868 422L867 421M619 422L620 423L619 422z"/>
<path style="fill:#e3dae7; stroke:none;" d="M675 422L676 423L675 422z"/>
<path style="fill:#eee9f0; stroke:none;" d="M867 422L868 423L867 422M921.333 422.667L921.667 423.333L921.333 422.667M675 423L676 424L675 423M620 424L621 425L620 424z"/>
<path style="fill:#d5c8db; stroke:none;" d="M676 424L677 425L676 424M866 424L867 425L866 424z"/>
<path style="fill:#e3dae7; stroke:none;" d="M921.333 424.667L921.667 425.333L921.333 424.667M620 425L621 426L620 425z"/>
<path style="fill:#eee9f0; stroke:none;" d="M676 425L677 426L676 425z"/>
<path style="fill:#e3dae7; stroke:none;" d="M866 425L867 426L866 425z"/>
<path style="fill:#d5c8db; stroke:none;" d="M620 426L621 427L620 426z"/>
<path style="fill:#e3dae7; stroke:none;" d="M677 426L678 427L677 426z"/>
<path style="fill:#d5c8db; stroke:none;" d="M921.333 426.667L921.667 427.333L921.333 426.667M865 427L866 428L865 427z"/>
<path style="fill:#e3dae7; stroke:none;" d="M621 428L622 429L621 428M678 428L679 429L678 428z"/>
<path style="fill:#eee9f0; stroke:none;" d="M865 428L866 429L865 428z"/>
<path style="fill:#d5c8db; stroke:none;" d="M621 429L622 430L621 429M679 429L680 430L679 429M864 429L865 430L864 429z"/>
<path style="fill:#eee9f0; stroke:none;" d="M679 430L680 431L679 430M864 430L865 431L864 430M920 430L921 431L920 430M622 431L623 432L622 431z"/>
<path style="fill:#e3dae7; stroke:none;" d="M680 431L681 432L680 431z"/>
<path style="fill:#d5c8db; stroke:none;" d="M863 431L864 432L863 431z"/>
<path style="fill:#e3dae7; stroke:none;" d="M920.333 431.667L920.667 432.333L920.333 431.667z"/>
<path style="fill:#d5c8db; stroke:none;" d="M622 432L623 433L622 432M681 432L682 433L681 432z"/>
<path style="fill:#eee9f0; stroke:none;" d="M863 432L864 433L863 432M681 433L682 434L681 433z"/>
<path style="fill:#d5c8db; stroke:none;" d="M862 433L863 434L862 433M920 433L921 434L920 433z"/>
<path style="fill:#eee9f0; stroke:none;" d="M623 434L624 435L623 434z"/>
<path style="fill:#e3dae7; stroke:none;" d="M682 434L683 435L682 434z"/>
<path style="fill:#eee9f0; stroke:none;" d="M862 434L863 435L862 434z"/>
<path style="fill:#d5c8db; stroke:none;" d="M623 435L624 436L623 435M683 435L684 436L683 435z"/>
<path style="fill:#e3dae7; stroke:none;" d="M861 435L862 436L861 435z"/>
<path style="fill:#eee9f0; stroke:none;" d="M919.333 435.667L919.667 436.333L919.333 435.667M683 436L684 437L683 436z"/>
<path style="fill:#e3dae7; stroke:none;" d="M624 437L625 438L624 437z"/>
<path style="fill:#eee9f0; stroke:none;" d="M684 437L685 438L684 437M860 437L861 438L860 437z"/>
<path style="fill:#e3dae7; stroke:none;" d="M919 437L920 438L919 437z"/>
<path style="fill:#d5c8db; stroke:none;" d="M624 438L625 439L624 438z"/>
<path style="fill:#e3dae7; stroke:none;" d="M685 438L686 439L685 438M859 438L860 439L859 438z"/>
<path style="fill:#d5c8db; stroke:none;" d="M919 438L920 439L919 438z"/>
<path style="fill:#eee9f0; stroke:none;" d="M625 439L626 440L625 439z"/>
<path style="fill:#d5c8db; stroke:none;" d="M686 439L687 440L686 439M858 439L859 440L858 439z"/>
<path style="fill:#e3dae7; stroke:none;" d="M625 440L626 441L625 440z"/>
<path style="fill:#d5c8db; stroke:none;" d="M687 440L688 441L687 440z"/>
<path style="fill:#eee9f0; stroke:none;" d="M858 440L859 441L858 440M918 440L919 441L918 440M687 441L688 442L687 441M857 441L858 442L857 441z"/>
<path style="fill:#e3dae7; stroke:none;" d="M918 441L919 442L918 441z"/>
<path style="fill:#eee9f0; stroke:none;" d="M626 442L627 443L626 442M688 442L689 443L688 442z"/>
<path style="fill:#e3dae7; stroke:none;" d="M856 442L857 443L856 442z"/>
<path style="fill:#d5c8db; stroke:none;" d="M918 442L919 443L918 442M626 443L627 444L626 443z"/>
<path style="fill:#eee9f0; stroke:none;" d="M689 443L690 444L689 443z"/>
<path style="fill:#d5c8db; stroke:none;" d="M855 443L856 444L855 443z"/>
<path style="fill:#eee9f0; stroke:none;" d="M627 444L628 445L627 444z"/>
<path style="fill:#e3dae7; stroke:none;" d="M690 444L691 445L690 444z"/>
<path style="fill:#d5c8db; stroke:none;" d="M854 444L855 445L854 444z"/>
<path style="fill:#eee9f0; stroke:none;" d="M917 444L918 445L917 444z"/>
<path style="fill:#e3dae7; stroke:none;" d="M627 445L628 446L627 445M691 445L692 446L691 445M917 445L918 446L917 445M692 446L693 447L692 446z"/>
<path style="fill:#eee9f0; stroke:none;" d="M853 446L854 447L853 446z"/>
<path style="fill:#e3dae7; stroke:none;" d="M628 447L629 448L628 447M693 447L694 448L693 447z"/>
<path style="fill:#eee9f0; stroke:none;" d="M852 447L853 448L852 447M916 447L917 448L916 447M694 448L695 449L694 448M851 448L852 449L851 448z"/>
<path style="fill:#e3dae7; stroke:none;" d="M916 448L917 449L916 448M629 449L630 450L629 449z"/>
<path style="fill:#eee9f0; stroke:none;" d="M695 449L696 450L695 449M850 449L851 450L850 449z"/>
<path style="fill:#d5c8db; stroke:none;" d="M916 449L917 450L916 449z"/>
<path style="fill:#eee9f0; stroke:none;" d="M696 450L697 451L696 450z"/>
<path style="fill:#d5c8db; stroke:none;" d="M697 450L698 451L697 450M848 450L849 451L848 450z"/>
<path style="fill:#eee9f0; stroke:none;" d="M849 450L850 451L849 450M915 450L916 451L915 450M630 451L631 452L630 451z"/>
<path style="fill:#d5c8db; stroke:none;" d="M698 451L699 452L698 451M847 451L848 452L847 451z"/>
<path style="fill:#e3dae7; stroke:none;" d="M915 451L916 452L915 451z"/>
<path style="fill:#d5c8db; stroke:none;" d="M630 452L631 453L630 452z"/>
<path style="fill:#e3dae7; stroke:none;" d="M699 452L700 453L699 452z"/>
<path style="fill:#d5c8db; stroke:none;" d="M846 452L847 453L846 452z"/>
<path style="fill:#eee9f0; stroke:none;" d="M631 453L632 454L631 453z"/>
<path style="fill:#e3dae7; stroke:none;" d="M700 453L701 454L700 453M845 453L846 454L845 453z"/>
<path style="fill:#eee9f0; stroke:none;" d="M914 453L915 454L914 453M701 454L702 455L701 454z"/>
<path style="fill:#d5c8db; stroke:none;" d="M702 454L703 455L702 454z"/>
<path style="fill:#eee9f0; stroke:none;" d="M844 454L845 455L844 454z"/>
<path style="fill:#d5c8db; stroke:none;" d="M914 454L915 455L914 454z"/>
<path style="fill:#e3dae7; stroke:none;" d="M632 455L633 456L632 455M703 455L704 456L703 455z"/>
<path style="fill:#d5c8db; stroke:none;" d="M842 455L843 456L842 455z"/>
<path style="fill:#eee9f0; stroke:none;" d="M843 455L844 456L843 455M704 456L705 457L704 456z"/>
<path style="fill:#e3dae7; stroke:none;" d="M841 456L842 457L841 456M913 456L914 457L913 456M633 457L634 458L633 457M706 457L707 458L706 457z"/>
<path style="fill:#d5c8db; stroke:none;" d="M839 457L840 458L839 457z"/>
<path style="fill:#eee9f0; stroke:none;" d="M840 457L841 458L840 457M707 458L708 459L707 458z"/>
<path style="fill:#e3dae7; stroke:none;" d="M838 458L839 459L838 458M912 458L913 459L912 458M634 459L635 460L634 459M709 459L710 460L709 459z"/>
<path style="fill:#d5c8db; stroke:none;" d="M836 459L837 460L836 459z"/>
<path style="fill:#eee9f0; stroke:none;" d="M837 459L838 460L837 459z"/>
<path style="fill:#d5c8db; stroke:none;" d="M912 459L913 460L912 459z"/>
<path style="fill:#eee9f0; stroke:none;" d="M635 460L636 461L635 460M710 460L711 461L710 460z"/>
<path style="fill:#d5c8db; stroke:none;" d="M711 460L712 461L711 460z"/>
<path style="fill:#e3dae7; stroke:none;" d="M835 460L836 461L835 460z"/>
<path style="fill:#eee9f0; stroke:none;" d="M911 460L912 461L911 460z"/>
<path style="fill:#d5c8db; stroke:none;" d="M635 461L636 462L635 461z"/>
<path style="fill:#eee9f0; stroke:none;" d="M712 461L713 462L712 461z"/>
<path style="fill:#e3dae7; stroke:none;" d="M833 461L834 462L833 461z"/>
<path style="fill:#d5c8db; stroke:none;" d="M911 461L912 462L911 461z"/>
<path style="fill:#e3dae7; stroke:none;" d="M636 462L637 463L636 462M714 462L715 463L714 462z"/>
<path style="fill:#d5c8db; stroke:none;" d="M831 462L832 463L831 462z"/>
<path style="fill:#eee9f0; stroke:none;" d="M832 462L833 463L832 462M910 462L911 463L910 462z"/>
<path style="fill:#e3dae7; stroke:none;" d="M716 463L717 464L716 463z"/>
<path style="fill:#d5c8db; stroke:none;" d="M829 463L830 464L829 463z"/>
<path style="fill:#eee9f0; stroke:none;" d="M830 463L831 464L830 463z"/>
<path style="fill:#d5c8db; stroke:none;" d="M910 463L911 464L910 463M637 464L638 465L637 464z"/>
<path style="fill:#e3dae7; stroke:none;" d="M718 464L719 465L718 464z"/>
<path style="fill:#d5c8db; stroke:none;" d="M827 464L828 465L827 464z"/>
<path style="fill:#eee9f0; stroke:none;" d="M828 464L829 465L828 464z"/>
<path style="fill:#e3dae7; stroke:none;" d="M909 464L910 465L909 464z"/>
<path style="fill:#eee9f0; stroke:none;" d="M638 465L639 466L638 465z"/>
<path style="fill:#e3dae7; stroke:none;" d="M720 465L721 466L720 465M825 465L826 466L825 465z"/>
<path style="fill:#eee9f0; stroke:none;" d="M826 465L827 466L826 465M722 466L723 467L722 466z"/>
<path style="fill:#d5c8db; stroke:none;" d="M723 466L724 467L723 466z"/>
<path style="fill:#e3dae7; stroke:none;" d="M823 466L824 467L823 466M908 466L909 467L908 466z"/>
<path style="fill:#d5c8db; stroke:none;" d="M639 467L640 468L639 467z"/>
<path style="fill:#eee9f0; stroke:none;" d="M724 467L725 468L724 467z"/>
<path style="fill:#e3dae7; stroke:none;" d="M725 467L726 468L725 467z"/>
<path style="fill:#d5c8db; stroke:none;" d="M820 467L821 468L820 467z"/>
<path style="fill:#eee9f0; stroke:none;" d="M821 467L822 468L821 467M640 468L641 469L640 468z"/>
<path style="fill:#e3dae7; stroke:none;" d="M727 468L728 469L727 468z"/>
<path style="fill:#d5c8db; stroke:none;" d="M728 468L729 469L728 468M817 468L818 469L817 468z"/>
<path style="fill:#e3dae7; stroke:none;" d="M818 468L819 469L818 468M907 468L908 469L907 468z"/>
<path style="fill:#eee9f0; stroke:none;" d="M729 469L730 470L729 469z"/>
<path style="fill:#e3dae7; stroke:none;" d="M730 469L731 470L730 469z"/>
<path style="fill:#d5c8db; stroke:none;" d="M731 469L732 470L731 469M814 469L815 470L814 469z"/>
<path style="fill:#e3dae7; stroke:none;" d="M815 469L816 470L815 469z"/>
<path style="fill:#eee9f0; stroke:none;" d="M816 469L817 470L816 469M906 469L907 470L906 469z"/>
<path style="fill:#d5c8db; stroke:none;" d="M641 470L642 471L641 470z"/>
<path style="fill:#eee9f0; stroke:none;" d="M732 470L733 471L732 470z"/>
<path style="fill:#e3dae7; stroke:none;" d="M733 470L734 471L733 470z"/>
<path style="fill:#d5c8db; stroke:none;" d="M734 470L735 471L734 470M811 470L812 471L811 470z"/>
<path style="fill:#e3dae7; stroke:none;" d="M812 470L813 471L812 470z"/>
<path style="fill:#eee9f0; stroke:none;" d="M813 470L814 471L813 470z"/>
<path style="fill:#d5c8db; stroke:none;" d="M906 470L907 471L906 470z"/>
<path style="fill:#e3dae7; stroke:none;" d="M642 471L643 472L642 471M736 471L737 472L736 471z"/>
<path style="fill:#d5c8db; stroke:none;" d="M737 471L738 472L737 471M807 471L808 472L807 471z"/>
<path style="fill:#e3dae7; stroke:none;" d="M808 471L809 472L808 471z"/>
<path style="fill:#eee9f0; stroke:none;" d="M809 471L810 472L809 471z"/>
<path style="fill:#e3dae7; stroke:none;" d="M905 471L906 472L905 471z"/>
<path style="fill:#eee9f0; stroke:none;" d="M643 472L644 473L643 472M739 472L740 473L739 472z"/>
<path style="fill:#e3dae7; stroke:none;" d="M740 472L741 473L740 472z"/>
<path style="fill:#d5c8db; stroke:none;" d="M741 472L742 473L741 472M803 472L804 473L803 472z"/>
<path style="fill:#e3dae7; stroke:none;" d="M804 472L805 473L804 472z"/>
<path style="fill:#eee9f0; stroke:none;" d="M805 472L806 473L805 472M743 473L744 474L743 473z"/>
<path style="fill:#e3dae7; stroke:none;" d="M744 473L745 474L744 473z"/>
<path style="fill:#d5c8db; stroke:none;" d="M745.667 473.333L746.333 473.667L745.667 473.333M798.667 473.333L799.333 473.667L798.667 473.333z"/>
<path style="fill:#e3dae7; stroke:none;" d="M800 473L801 474L800 473z"/>
<path style="fill:#eee9f0; stroke:none;" d="M801 473L802 474L801 473z"/>
<path style="fill:#d5c8db; stroke:none;" d="M904 473L905 474L904 473M644 474L645 475L644 474z"/>
<path style="fill:#eee9f0; stroke:none;" d="M748 474L749 475L748 474z"/>
<path style="fill:#e3dae7; stroke:none;" d="M749 474L750 475L749 474z"/>
<path style="fill:#d5c8db; stroke:none;" d="M750.667 474.333L751.333 474.667L750.667 474.333M792.667 474.333L793.333 474.667L792.667 474.333z"/>
<path style="fill:#e3dae7; stroke:none;" d="M794.667 474.333L795.333 474.667L794.667 474.333z"/>
<path style="fill:#eee9f0; stroke:none;" d="M796 474L797 475L796 474M903 474L904 475L903 474z"/>
<path style="fill:#e3dae7; stroke:none;" d="M645 475L646 476L645 475z"/>
<path style="fill:#eee9f0; stroke:none;" d="M754 475L755 476L754 475z"/>
<path style="fill:#e3dae7; stroke:none;" d="M755 475L755 476L758 476L755 475z"/>
<path style="fill:#d5c8db; stroke:none;" d="M758.667 475.333L759.333 475.667L758.667 475.333M783 475L783 476L786 476L783 475z"/>
<path style="fill:#e3dae7; stroke:none;" d="M786.667 475.333L787.333 475.667L786.667 475.333z"/>
<path style="fill:#eee9f0; stroke:none;" d="M788 475L788 476L791 476L788 475z"/>
<path style="fill:#e3dae7; stroke:none;" d="M646 476L647 477L646 476z"/>
<path style="fill:#eee9f0; stroke:none;" d="M763 476L763 477L780 477L763 476z"/>
<path style="fill:#d5c8db; stroke:none;" d="M902 476L903 477L902 476z"/>
<path style="fill:#eee9f0; stroke:none;" d="M647 477L648 478L647 477z"/>
<path style="fill:#e3dae7; stroke:none;" d="M901 477L902 478L901 477z"/>
<path style="fill:#eee9f0; stroke:none;" d="M648 478L649 479L648 478M900 478L901 479L900 478z"/>
<path style="fill:#d5c8db; stroke:none;" d="M648 479L649 480L648 479M900 479L901 480L900 479M649 480L650 481L649 480M899 480L900 481L899 480M650 481L651 482L650 481z"/>
<path style="fill:#e3dae7; stroke:none;" d="M898 481L899 482L898 481z"/>
<path style="fill:#d5c8db; stroke:none;" d="M651 482L652 483L651 482z"/>
<path style="fill:#eee9f0; stroke:none;" d="M897 482L898 483L897 482z"/>
<path style="fill:#d5c8db; stroke:none;" d="M652 483L653 484L652 483z"/>
<path style="fill:#e3dae7; stroke:none;" d="M653 484L654 485L653 484z"/>
<path style="fill:#d5c8db; stroke:none;" d="M896 484L897 485L896 484z"/>
<path style="fill:#e3dae7; stroke:none;" d="M654 485L655 486L654 485z"/>
<path style="fill:#d5c8db; stroke:none;" d="M895 485L896 486L895 485z"/>
<path style="fill:#e3dae7; stroke:none;" d="M655 486L656 487L655 486z"/>
<path style="fill:#d5c8db; stroke:none;" d="M894 486L895 487L894 486z"/>
<path style="fill:#e3dae7; stroke:none;" d="M656 487L657 488L656 487M893 487L894 488L893 487z"/>
<path style="fill:#d5c8db; stroke:none;" d="M657 488L658 489L657 488z"/>
<path style="fill:#e3dae7; stroke:none;" d="M892 488L893 489L892 488z"/>
<path style="fill:#d5c8db; stroke:none;" d="M658 489L659 490L658 489z"/>
<path style="fill:#e3dae7; stroke:none;" d="M891 489L892 490L891 489z"/>
<path style="fill:#d5c8db; stroke:none;" d="M659 490L660 491L659 490z"/>
<path style="fill:#e3dae7; stroke:none;" d="M890 490L891 491L890 490z"/>
<path style="fill:#d5c8db; stroke:none;" d="M660 491L661 492L660 491z"/>
<path style="fill:#e3dae7; stroke:none;" d="M889 491L890 492L889 491z"/>
<path style="fill:#d5c8db; stroke:none;" d="M661 492L662 493L661 492z"/>
<path style="fill:#e3dae7; stroke:none;" d="M888 492L889 493L888 492z"/>
<path style="fill:#eee9f0; stroke:none;" d="M663 493L664 494L663 493z"/>
<path style="fill:#e3dae7; stroke:none;" d="M887 493L888 494L887 493M664 494L665 495L664 494M886 494L887 495L886 494M665 495L666 496L665 495z"/>
<path style="fill:#d5c8db; stroke:none;" d="M885 495L886 496L885 495M666 496L667 497L666 496M884 496L885 497L884 496z"/>
<path style="fill:#eee9f0; stroke:none;" d="M668 497L669 498L668 497M882 497L883 498L882 497z"/>
<path style="fill:#d5c8db; stroke:none;" d="M883 497L884 498L883 497z"/>
<path style="fill:#e3dae7; stroke:none;" d="M669 498L670 499L669 498z"/>
<path style="fill:#eee9f0; stroke:none;" d="M881 498L882 499L881 498z"/>
<path style="fill:#d5c8db; stroke:none;" d="M670 499L671 500L670 499z"/>
<path style="fill:#e3dae7; stroke:none;" d="M880 499L881 500L880 499z"/>
<path style="fill:#eee9f0; stroke:none;" d="M672 500L673 501L672 500z"/>
<path style="fill:#d5c8db; stroke:none;" d="M879 500L880 501L879 500z"/>
<path style="fill:#e3dae7; stroke:none;" d="M673 501L674 502L673 501z"/>
<path style="fill:#eee9f0; stroke:none;" d="M877 501L878 502L877 501z"/>
<path style="fill:#d5c8db; stroke:none;" d="M674 502L675 503L674 502z"/>
<path style="fill:#eee9f0; stroke:none;" d="M675 502L676 503L675 502z"/>
<path style="fill:#e3dae7; stroke:none;" d="M876 502L877 503L876 502M676 503L677 504L676 503z"/>
<path style="fill:#eee9f0; stroke:none;" d="M874 503L875 504L874 503z"/>
<path style="fill:#d5c8db; stroke:none;" d="M875 503L876 504L875 503z"/>
<path style="fill:#eee9f0; stroke:none;" d="M678 504L679 505L678 504z"/>
<path style="fill:#e3dae7; stroke:none;" d="M873 504L874 505L873 504z"/>
<path style="fill:#d5c8db; stroke:none;" d="M679 505L680 506L679 505z"/>
<path style="fill:#eee9f0; stroke:none;" d="M680 505L681 506L680 505M871 505L872 506L871 505z"/>
<path style="fill:#d5c8db; stroke:none;" d="M872 505L873 506L872 505z"/>
<path style="fill:#e3dae7; stroke:none;" d="M681 506L682 507L681 506M870 506L871 507L870 506z"/>
<path style="fill:#eee9f0; stroke:none;" d="M683 507L684 508L683 507M868 507L869 508L868 507z"/>
<path style="fill:#d5c8db; stroke:none;" d="M684 508L685 509L684 508z"/>
<path style="fill:#eee9f0; stroke:none;" d="M685 508L686 509L685 508M866 508L867 509L866 508z"/>
<path style="fill:#d5c8db; stroke:none;" d="M867 508L868 509L867 508M686 509L687 510L686 509z"/>
<path style="fill:#eee9f0; stroke:none;" d="M687 509L688 510L687 509z"/>
<path style="fill:#e3dae7; stroke:none;" d="M865 509L866 510L865 509z"/>
<path style="fill:#d5c8db; stroke:none;" d="M688 510L689 511L688 510z"/>
<path style="fill:#eee9f0; stroke:none;" d="M689 510L690 511L689 510z"/>
<path style="fill:#e3dae7; stroke:none;" d="M863 510L864 511L863 510z"/>
<path style="fill:#d5c8db; stroke:none;" d="M690 511L691 512L690 511z"/>
<path style="fill:#eee9f0; stroke:none;" d="M691 511L692 512L691 511z"/>
<path style="fill:#e3dae7; stroke:none;" d="M861 511L862 512L861 511z"/>
<path style="fill:#d5c8db; stroke:none;" d="M692 512L693 513L692 512z"/>
<path style="fill:#eee9f0; stroke:none;" d="M693 512L694 513L693 512z"/>
<path style="fill:#e3dae7; stroke:none;" d="M859 512L860 513L859 512z"/>
<path style="fill:#d5c8db; stroke:none;" d="M694 513L695 514L694 513z"/>
<path style="fill:#eee9f0; stroke:none;" d="M695 513L696 514L695 513z"/>
<path style="fill:#e3dae7; stroke:none;" d="M857 513L858 514L857 513z"/>
<path style="fill:#d5c8db; stroke:none;" d="M696 514L697 515L696 514z"/>
<path style="fill:#e3dae7; stroke:none;" d="M697 514L698 515L697 514M855 514L856 515L855 514M699 515L700 516L699 515z"/>
<path style="fill:#eee9f0; stroke:none;" d="M700 515L701 516L700 515M852 515L853 516L852 515z"/>
<path style="fill:#e3dae7; stroke:none;" d="M853 515L854 516L853 515z"/>
<path style="fill:#d5c8db; stroke:none;" d="M701 516L702 517L701 516z"/>
<path style="fill:#eee9f0; stroke:none;" d="M702 516L703 517L702 516M850 516L851 517L850 516z"/>
<path style="fill:#d5c8db; stroke:none;" d="M851 516L852 517L851 516z"/>
<path style="fill:#e3dae7; stroke:none;" d="M704 517L705 518L704 517z"/>
<path style="fill:#eee9f0; stroke:none;" d="M705 517L706 518L705 517M847 517L848 518L847 517z"/>
<path style="fill:#e3dae7; stroke:none;" d="M848 517L849 518L848 517z"/>
<path style="fill:#d5c8db; stroke:none;" d="M706 518L707 519L706 518z"/>
<path style="fill:#e3dae7; stroke:none;" d="M707 518L708 519L707 518z"/>
<path style="fill:#eee9f0; stroke:none;" d="M708 518L709 519L708 518z"/>
<path style="fill:#e3dae7; stroke:none;" d="M845 518L846 519L845 518z"/>
<path style="fill:#d5c8db; stroke:none;" d="M846 518L847 519L846 518M709 519L710 520L709 519z"/>
<path style="fill:#e3dae7; stroke:none;" d="M710 519L711 520L710 519z"/>
<path style="fill:#eee9f0; stroke:none;" d="M711 519L712 520L711 519M842 519L843 520L842 519z"/>
<path style="fill:#d5c8db; stroke:none;" d="M843 519L844 520L843 519M712 520L713 521L712 520z"/>
<path style="fill:#e3dae7; stroke:none;" d="M713 520L714 521L713 520z"/>
<path style="fill:#eee9f0; stroke:none;" d="M714 520L715 521L714 520M839 520L840 521L839 520z"/>
<path style="fill:#d5c8db; stroke:none;" d="M840 520L841 521L840 520z"/>
<path style="fill:#e3dae7; stroke:none;" d="M716 521L717 522L716 521z"/>
<path style="fill:#eee9f0; stroke:none;" d="M717 521L718 522L717 521z"/>
<path style="fill:#e3dae7; stroke:none;" d="M836 521L837 522L836 521z"/>
<path style="fill:#d5c8db; stroke:none;" d="M837 521L838 522L837 521M719 522L720 523L719 522z"/>
<path style="fill:#e3dae7; stroke:none;" d="M720 522L721 523L720 522z"/>
<path style="fill:#eee9f0; stroke:none;" d="M721 522L722 523L721 522M832 522L833 523L832 522z"/>
<path style="fill:#e3dae7; stroke:none;" d="M833 522L834 523L833 522z"/>
<path style="fill:#d5c8db; stroke:none;" d="M834 522L835 523L834 522M723 523L724 524L723 523z"/>
<path style="fill:#e3dae7; stroke:none;" d="M724 523L725 524L724 523z"/>
<path style="fill:#eee9f0; stroke:none;" d="M725 523L726 524L725 523M828 523L829 524L828 523z"/>
<path style="fill:#e3dae7; stroke:none;" d="M829 523L830 524L829 523z"/>
<path style="fill:#d5c8db; stroke:none;" d="M830 523L831 524L830 523M727 524L728 525L727 524z"/>
<path style="fill:#e3dae7; stroke:none;" d="M728 524L729 525L728 524z"/>
<path style="fill:#eee9f0; stroke:none;" d="M729 524L730 525L729 524M824 524L825 525L824 524z"/>
<path style="fill:#e3dae7; stroke:none;" d="M825 524L826 525L825 524z"/>
<path style="fill:#d5c8db; stroke:none;" d="M826 524L827 525L826 524M732 525L733 526L732 525z"/>
<path style="fill:#e3dae7; stroke:none;" d="M733 525L734 526L733 525z"/>
<path style="fill:#eee9f0; stroke:none;" d="M734.667 525.333L735.333 525.667L734.667 525.333M819 525L820 526L819 525z"/>
<path style="fill:#e3dae7; stroke:none;" d="M820 525L821 526L820 525z"/>
<path style="fill:#d5c8db; stroke:none;" d="M821.667 525.333L822.333 525.667L821.667 525.333M737 526L738 527L737 526z"/>
<path style="fill:#e3dae7; stroke:none;" d="M738.667 526.333L739.333 526.667L738.667 526.333z"/>
<path style="fill:#eee9f0; stroke:none;" d="M740.667 526.333L741.333 526.667L740.667 526.333M813.667 526.333L814.333 526.667L813.667 526.333z"/>
<path style="fill:#e3dae7; stroke:none;" d="M815 526L816 527L815 526z"/>
<path style="fill:#d5c8db; stroke:none;" d="M816.667 526.333L817.333 526.667L816.667 526.333M743.667 527.333L744.333 527.667L743.667 527.333z"/>
<path style="fill:#e3dae7; stroke:none;" d="M745.667 527.333L746.333 527.667L745.667 527.333z"/>
<path style="fill:#eee9f0; stroke:none;" d="M747.667 527.333L748.333 527.667L747.667 527.333M807.667 527.333L808.333 527.667L807.667 527.333z"/>
<path style="fill:#e3dae7; stroke:none;" d="M809 527L810 528L809 527z"/>
<path style="fill:#d5c8db; stroke:none;" d="M810.667 527.333L811.333 527.667L810.667 527.333M751 528L751 529L754 529L751 528z"/>
<path style="fill:#e3dae7; stroke:none;" d="M754.667 528.333L755.333 528.667L754.667 528.333z"/>
<path style="fill:#eee9f0; stroke:none;" d="M756 528L756 529L759 529L756 528M798.667 528.333L799.333 528.667L798.667 528.333z"/>
<path style="fill:#e3dae7; stroke:none;" d="M800 528L800 529L803 529L800 528z"/>
<path style="fill:#d5c8db; stroke:none;" d="M803.667 528.333L804.333 528.667L803.667 528.333M763 529L763 530L768 530L763 529z"/>
<path style="fill:#e3dae7; stroke:none;" d="M768 529L768 530L790 530L768 529z"/>
<path style="fill:#d5c8db; stroke:none;" d="M790 529L790 530L794 530L790 529z"/>
</svg>
